This is my own rip.

Sorry about the lack of chapter stops, but I nothing I own has them.


General
Unique ID                        : 184905230146802491875516148341293525713 (0x8B1B73B3BD42A502B1C48A3BD7E12AD1)
Format                           : Matroska
Format version                   : Version 4 / Version 2
File size                        : 1.52 GiB
Duration                         : 1h 31mn
Overall bit rate mode            : Variable
Overall bit rate                 : 2 382 Kbps
Encoded date                     : UTC 2013-06-15 15:41:11
Writing application              : mkvmerge v6.1.0 ('Old Devil') built on Mar  2 2013 14:32:37
Writing library                  : libebml v1.3.0 + libmatroska v1.4.0

Video
ID                               : 1
Format                           : AVC
Format/Info                      : Advanced Video Codec
Format profile                   : High@L4.1
Format settings, CABAC           : Yes
Format settings, ReFrames        : 7 frames
Codec ID                         : V_MPEG4/ISO/AVC
Duration                         : 1h 31mn
Bit rate mode                    : Variable
Bit rate                         : 1 950 Kbps
Maximum bit rate                 : 7.98 Mbps
Width                            : 1 204 pixels
Height                           : 720 pixels
Display aspect ratio             : 1.672
Frame rate                       : 23.976 fps
Color space                      : YUV
Chroma subsampling               : 4:2:0
Bit depth                        : 8 bits
Scan type                        : Progressive
Bits/(Pixel*Frame)               : 0.094
Stream size                      : 1.25 GiB (82%)
Writing library                  : x264 core 129 r2245 bc13772
Language                         : English
Default                          : Yes
Forced                           : No

Audio
ID                               : 2
Format                           : AC-3
Format/Info                      : Audio Coding 3
Mode extension                   : CM (complete main)
Codec ID                         : A_AC3
Duration                         : 1h 31mn
Bit rate mode                    : Constant
Bit rate                         : 384 Kbps
Channel(s)                       : 1 channel
Channel positions                : Front: C
Sampling rate                    : 48.0 KHz
Bit depth                        : 16 bits
Compression mode                 : Lossy
Stream size                      : 251 MiB (16%)
Language                         : English
Default                          : Yes
Forced                           : No
